<mxfile host="app.diagrams.net" modified="2023-05-16T10:07:37.400Z" agent="Mozilla/5.0 (Macintosh; Intel Mac OS X 10_15_7) AppleWebKit/537.36 (KHTML, like Gecko) Chrome/113.0.0.0 Safari/537.36" version="21.3.2" etag="m4rVaTD9JgUBx8wKvtU6" type="github">
  <diagram name="ページ1" id="r7KkCXn5JpOZKjSpIb1h">
    <mxGraphModel>
      <root>
        <mxCell id="0" />
        <mxCell id="1" parent="0" />
      </root>
    </mxGraphModel>
  </diagram>
</mxfile>
